<?xml version="1.0" standalone="no"?>
<!DOCTYPE svg PUBLIC "-//W3C//DTD SVG 1.1//EN" "http://www.w3.org/Graphics/SVG/1.1/DTD/svg11.dtd" >
<!--
2013-9-30: Created.
-->
<svg>
<metadata>
Created by iconfont
</metadata>
<defs>

<font id="iconfont" horiz-adv-x="1024" >
  <font-face
    font-family="iconfont"
    font-weight="500"
    font-stretch="normal"
    units-per-em="1024"
    ascent="896"
    descent="-128"
  />
    <missing-glyph />
    
    <glyph glyph-name="x" unicode="x" horiz-adv-x="1001"
d="M281 543q-27 -1 -53 -1h-83q-18 0 -36.5 -6t-32.5 -18.5t-23 -32t-9 -45.5v-76h912v41q0 16 -0.5 30t-0.5 18q0 13 -5 29t-17 29.5t-31.5 22.5t-49.5 9h-133v-97h-438v97zM955 310v-52q0 -23 0.5 -52t0.5 -58t-10.5 -47.5t-26 -30t-33 -16t-31.5 -4.5q-14 -1 -29.5 -0.5
t-29.5 0.5h-32l-45 128h-439l-44 -128h-29h-34q-20 0 -45 1q-25 0 -41 9.5t-25.5 23t-13.5 29.5t-4 30v167h911zM163 247q-12 0 -21 -8.5t-9 -21.5t9 -21.5t21 -8.5q13 0 22 8.5t9 21.5t-9 21.5t-22 8.5zM316 123q-8 -26 -14 -48q-5 -19 -10.5 -37t-7.5 -25t-3 -15t1 -14.5
t9.5 -10.5t21.5 -4h37h67h81h80h64h36q23 0 34 12t2 38q-5 13 -9.5 30.5t-9.5 34.5q-5 19 -11 39h-368zM336 498v228q0 11 2.5 23t10 21.5t20.5 15.5t34 6h188q31 0 51.5 -14.5t20.5 -52.5v-227h-327z" />
    

    
    <glyph glyph-name="chart" unicode="&#58922;" d="M543.936 333.856c0 0 3.072 383.552 0 383.552 220.672 0 383.552-162.88 383.552-383.552 0-1.216-383.552 0-383.552 0zM895.552 255.136c0-229.472-186.048-415.52-415.52-415.52-229.504 0-415.52 186.048-415.52 415.52 0 229.504 186.016 415.52 415.52 415.52 10.784 0 21.376-0.768 31.968-1.6l0-367.168 381.056 0c1.6-14.72 2.496-31.616 2.496-46.752zM861.6 267.936l-381.568 0 0 370.752c-211.84 0-383.552-171.744-383.552-383.584s171.712-383.52 383.552-383.52 383.552 171.68 383.552 383.52c0 41.28-1.984 12.832-1.984 12.832z"  horiz-adv-x="1024" />

    
    <glyph glyph-name="caret" unicode="&#58897;" d="M519.038 271.82399999999996l192.554 192.596c11.883 11.883 15.401 29.6 8.985 45.126-6.416 15.484-21.529 25.543-38.253 25.543h-385.15c-16.725 0-31.837-10.101-38.253-25.543-2.112-5.134-3.147-10.516-3.147-15.857 0-10.764 4.222-21.362 12.13-29.27l192.596-192.596c7.783-7.783 18.299-12.13 29.27-12.13s21.529 4.388 29.27 12.13z"  horiz-adv-x="1024" />

    
    <glyph glyph-name="import" unicode="&#58987;" d="M921.736407 3.4784740000000056L921.736407 3.4784740000000056 102.270756 3.4784740000000056c-16.189727 0-29.27986 13.09218-29.27986 29.271674L72.990896 266.881582c0 16.145725 13.090133 29.271674 29.27986 29.271674 16.164145 0 29.254278-13.125949 29.254278-29.271674l0-204.867948 760.947885 0L892.472919 266.881582c0 16.145725 13.090133 29.271674 29.263487 29.271674 16.181541 0 29.27065-13.125949 29.27065-29.271674l0-234.130412C951.008081 16.570652999999993 937.917948 3.4784740000000056 921.736407 3.4784740000000056zM637.810892 539.062612l-96.538707 117.016087 0-418.406368c0-16.208147-13.093203-29.316699-29.272697-29.316699-16.171308 0-29.254278 13.109576-29.254278 29.316699L482.745211 654.953062l-95.646384-115.89045c-11.45796-11.546987-30.067806-11.546987-41.525766 0-11.492752 11.519358-11.492752 30.210046 0 41.72838l144.646378 175.346587c6.116301 6.144954 14.233166 8.760524 22.242584 8.340969 8.002254 0.419556 16.109909-2.196015 22.262026-8.340969L679.345868 580.790992c11.482519-11.518335 11.482519-30.209022 0-41.72838C667.878698 527.515624 649.288295 527.515624 637.810892 539.062612z"  horiz-adv-x="1024" />

    
    <glyph glyph-name="exit" unicode="&#58881;" d="M729.114366 107.77457400000003c-3.944496 0-7.966837 1.209013-11.417511 3.717046-8.686893 6.333331-10.58677 18.474547-4.285063 27.160223l178.205362 244.781356L713.408143 628.2863179999999c-6.298058 8.686893-4.39818 20.826892 4.322769 27.121301 8.613914 6.298058 20.78797 4.400613 27.082379-4.285063l186.478709-256.275494c4.972279-6.788231 4.972279-16.004219 0-22.832589L744.813291 115.77668300000005C741.023266 110.54533000000004 735.103481 107.77457400000003 729.114366 107.77457400000003L729.114366 107.77457400000003 729.114366 107.77457400000003zM729.114366 107.77457400000003M729.102203 100.58131100000003c-5.64125 0-11.048968 1.773381-15.617432 5.127967-11.818893 8.626077-14.455855 25.271292-5.877214 37.158299l175.158503 240.568055L707.633099 624.0754489999999c-4.19384 5.782342-5.877214 12.819917-4.758208 19.836815 1.123871 6.99622 4.895651 13.148321 10.6561 17.29959 11.396833 8.300106 28.833867 5.546378 37.08532-5.897892l186.464113-256.232924c6.806476-9.349782 6.833235-21.91549 0-31.285949L750.595633 111.58649200000002C745.605109 104.68636000000004 737.564078 100.58131100000003 729.102203 100.58131100000003L729.102203 100.58131100000003zM729.102203 651.956944c-2.585877 0-5.059853-0.817361-7.155557-2.331668-2.679533-1.936367-4.405478-4.758208-4.921194-7.971702-0.53396-3.240252 0.257858-6.484154 2.194225-9.164903l181.263167-249.05304L719.192918 134.47868000000005c-3.935982-5.503807-2.726969-13.195757 2.728185-17.205934 5.292169-3.824082 13.195757-2.516547 17.109846 2.702643L925.521821 376.23385499999995c3.123486 4.310606 3.123486 10.092948 0 14.403554L739.030949 646.897091C736.724823 650.068014 733.016291 651.956944 729.102203 651.956944L729.102203 651.956944zM729.102203 651.956944M915.588209 364.01236300000005L433.616493 364.01236300000005c-10.699887 0-19.41962 8.682027-19.41962 19.41962 0 10.729079 8.720949 19.41962 19.41962 19.41962l481.972932 0c10.776515 0 19.424485-8.689325 19.424485-19.41962C935.009046 372.69439 926.364724 364.01236300000005 915.588209 364.01236300000005L915.588209 364.01236300000005 915.588209 364.01236300000005zM915.588209 364.01236300000005M915.588209 356.862887L433.611628 356.862887c-14.662628 0-26.570312 11.912549-26.570312 26.573961 0 14.662628 11.907684 26.575177 26.570312 26.575177l481.976581 0c14.661412 0 26.575177-11.912549 26.575177-26.575177C942.163387 368.775436 930.254486 356.862887 915.588209 356.862887L915.588209 356.862887zM433.611628 395.697262c-6.75904 0-12.26163-5.502591-12.26163-12.26163 0-6.757823 5.502591-12.260414 12.26163-12.260414l481.976581 0c6.762689 0 12.26163 5.502591 12.26163 12.260414 0 6.763905-5.498942 12.26163-12.26163 12.26163L433.611628 395.697262 433.611628 395.697262zM433.611628 395.697262M108.379819-49.53456600000004c-10.695022 0-19.41962 8.686893-19.41962 19.41962L88.960199 797.05189c0 10.733944 8.724598 19.41962 19.41962 19.41962 10.772866 0 19.41962-8.686893 19.41962-19.41962l0-827.161971C127.800655-40.847673999999984 119.152685-49.53456600000004 108.379819-49.53456600000004L108.379819-49.53456600000004 108.379819-49.53456600000004zM108.379819-49.53456600000004M108.379819-56.71931500000005c-14.662628 0-26.575177 11.934443-26.575177 26.622613L81.804641 797.043376c0 14.662628 11.912549 26.575177 26.575177 26.575177 14.661412 0 26.575177-11.912549 26.575177-26.575177l0-827.140078C134.954996-44.78487199999995 123.041231-56.71931500000005 108.379819-56.71931500000005L108.379819-56.71931500000005zM108.379819 809.30379c-6.75904 0-12.26163-5.502591-12.26163-12.26163l0-827.140078c0-6.763905 5.502591-12.26163 12.26163-12.26163s12.26163 5.502591 12.26163 12.26163L120.641449 797.043376C120.641449 803.802416 115.138858 809.30379 108.379819 809.30379L108.379819 809.30379zM108.379819 809.30379M628.211645-49.53456600000004L108.379819-49.53456600000004c-10.695022 0-19.41962 8.686893-19.41962 19.41962s8.724598 19.424485 19.41962 19.424485l519.831826 0c10.768001 0 19.420836-8.690542 19.420836-19.424485S638.983294-49.53456600000004 628.211645-49.53456600000004L628.211645-49.53456600000004 628.211645-49.53456600000004zM628.211645-49.53456600000004M628.211645-56.71931500000005L108.379819-56.71931500000005c-14.662628 0-26.575177 11.934443-26.575177 26.622613 0 14.635869 11.912549 26.575177 26.575177 26.575177l519.831826 0c14.662628 0 26.575177-11.938092 26.575177-26.575177C654.785606-44.78487199999995 642.877922-56.71931500000005 628.211645-56.71931500000005L628.211645-56.71931500000005zM108.379819-17.882507000000032c-6.75904 0-12.26163-5.455154-12.26163-12.214194 0-6.763905 5.502591-12.26163 12.26163-12.26163l519.831826 0c6.763905 0 12.26163 5.497725 12.26163 12.26163 0 6.75904-5.502591 12.214194-12.26163 12.214194L108.379819-17.882507000000032 108.379819-17.882507000000032zM108.379819-17.882507000000032M628.211645 777.627405L108.379819 777.627405c-10.695022 0-19.41962 8.686893-19.41962 19.424485 0 10.733944 8.724598 19.41962 19.41962 19.41962l519.831826 0c10.768001 0 19.420836-8.686893 19.420836-19.41962C647.631265 786.313081 638.983294 777.627405 628.211645 777.627405L628.211645 777.627405 628.211645 777.627405zM628.211645 777.627405M628.211645 770.468199L108.379819 770.468199c-14.662628 0-26.575177 11.913765-26.575177 26.575177 0 14.662628 11.912549 26.575177 26.575177 26.575177l519.831826 0c14.662628 0 26.575177-11.912549 26.575177-26.575177C654.785606 782.381964 642.877922 770.468199 628.211645 770.468199L628.211645 770.468199zM108.379819 809.30379c-6.75904 0-12.26163-5.502591-12.26163-12.26163 0-6.757823 5.502591-12.260414 12.26163-12.260414l519.831826 0c6.763905 0 12.26163 5.502591 12.26163 12.260414 0 6.75904-5.502591 12.26163-12.26163 12.26163L108.379819 809.30379 108.379819 809.30379zM108.379819 809.30379"  horiz-adv-x="1024" />

    
    <glyph glyph-name="setting" unicode="&#58900;" d="M645.153114-65.00322400000005l-0.005117 0c-16.247033 0.00614-32.041764 7.158027-42.243103 19.140942-13.897521 16.217357-57.935504 58.393945-93.983511 58.393945-35.798321 0-80.518848-42.423205-93.361341-57.281611-10.17678-11.775184-25.860994-18.811438-41.953508-18.811438-7.667633 0-14.898315 1.568728-21.502733 4.65502l-1.156336 0.539282-109.567441 65.225537-1.088798 0.805342c-19.947308 14.859429-27.538193 43.933605-17.653055 67.620074 0.075725 0.182149 10.105149 24.818245 10.105149 47.28084 0 68.166519-52.104705 123.629715-116.14423 123.629715l-3.885494 0c-0.236384-0.00614-0.472767-0.010233-0.704035-0.010233-18.346857 0-33.283034 17.346063-38.057781 44.191478-0.38067 2.152013-9.347902 53.069683-9.347902 93.190449 0 40.120766 8.967232 91.045599 9.347902 93.194542 4.831029 27.186176 20.094664 44.650943 38.761815 44.181245l3.885494 0c64.039525 0 116.14423 55.464219 116.14423 123.629715 0 22.457478-10.025331 47.089481-10.129708 47.335075-9.870812 23.664979-2.229784 52.733015 17.802458 67.546396l1.133823 0.839111 115.6336 67.610864 1.203408 0.545422c6.514367 2.956332 13.643742 4.451382 21.197788 4.451382 16.058744 0 31.772634-6.877641 42.043558-18.400069 13.687744-15.252379 56.94699-54.921867 91.961458-54.921867 34.682917 0 77.680197 38.884612 91.321892 53.870932 10.211573 11.287067 25.816992 18.047028 41.712007 18.047028 7.707542 0 14.973016-1.551332 21.589714-4.612041l1.171686-0.545422 111.686708-66.045205 1.099031-0.823761c19.981077-14.839986 27.593452-43.913139 17.703197-67.614957-0.075725-0.182149-10.107195-24.819269-10.107195-47.281863 0-68.166519 52.105728-123.629715 116.145254-123.629715l3.885494 0c18.642592 0.444115 33.92567-16.989953 38.760792-44.181245 0.381693-2.148943 9.348925-53.069683 9.348925-93.189426s-8.967232-91.044576-9.354042-93.195565c-4.830005-27.186176-20.113083-44.586474-38.759769-44.181245l-3.8814 0c-64.039525 0-116.145254-55.463196-116.145254-123.629715 0-22.456455 10.027377-47.083341 10.126638-47.328935 9.866718-23.648606 2.24411-52.721759-17.753339-67.552535l-1.12052-0.832971-113.568569-66.815755-1.184989-0.542352C659.768997-63.48873100000003 652.664182-65.00322400000005 645.153114-65.00322400000005M641.704572-8.049071000000026c0.506537-0.353041 1.942235-0.951675 3.448542-0.951675 0.061398 0 0.12075 0 0.169869 0.008186l106.10969 62.421678c-2.561335 6.332219-14.273075 37.07336-14.273075 69.131497 0 95.887884 70.951959 174.473707 159.904896 179.388646 1.281179 7.525394 8.229428 49.860595 8.229428 81.619926 0 31.755238-6.948249 74.072019-8.229428 81.618902-88.952938 4.91801-159.904896 83.499739-159.904896 179.387623 0 32.109302 11.747555 62.887282 14.288424 69.172429l-104.387465 61.73197c-0.119727 0.00614-0.265036 0.01535-0.436952 0.01535-1.777483 0-3.438309-0.689708-3.989871-1.085728-1.752924-1.918699-16.885576-18.248619-38.619576-34.523281-32.17377-24.092721-62.593594-36.309974-90.423429-36.309974-28.101012 0-58.767452 12.456706-91.146906 37.025265-21.869077 16.588817-37.069267 33.235962-38.82526 35.187407-0.556679 0.401136-2.238994 1.112334-4.03285 1.112334-0.13917 0-0.26606-0.00614-0.37146-0.011256l-108.12151-63.212694c2.591011-6.414083 14.259772-37.098943 14.259772-69.101821 0-95.887884-70.952982-174.469614-159.90592-179.387623-1.280156-7.529487-8.228405-49.857525-8.228405-81.618902 0-31.753191 6.948249-74.065879 8.232498-81.614809 88.947821-4.920056 159.900803-83.499739 159.900803-179.387623 0-32.172747-11.793604-63.003939-14.304797-69.209268l102.331643-60.907185c0.066515-0.005117 0.143263-0.005117 0.227174-0.005117 1.496074 0 2.912329 0.579191 3.417843 0.927115 1.915629 2.185782 17.196661 19.404955 39.213094 36.58422 32.81436 25.600051 63.999616 38.579667 92.683912 38.579667 28.959565 0 60.378136-13.226233 93.384877-39.317471C624.44856 11.716088000000013 639.79713-5.825425999999993 641.704572-8.049071000000026M509.29489 219.55162399999995c-85.285408 0-154.670685 73.857125-154.670685 164.642804 0 90.783633 69.385277 164.641781 154.670685 164.641781 85.289502 0 154.681942-73.858148 154.681942-164.641781C663.976832 293.40874899999994 594.584392 219.55162399999995 509.29489 219.55162399999995M509.29489 492.832707c-56.277748 0-102.059444-48.734958-102.059444-108.639303 0-59.905368 45.782719-108.646466 102.059444-108.646466 56.278771 0 102.06763 48.741098 102.06763 108.646466C611.36252 444.098773 565.579801 492.832707 509.29489 492.832707"  horiz-adv-x="1024" />

    
    <glyph glyph-name="teacher" unicode="&#59130;" d="M957.943027-52.46772299999998l-9.194406-15.521508-23.718191 0L88.392678-67.98923100000002l-26.984584 0 0.546446 23.64349c1.051959 44.559868 6.326079 105.014752 24.030299 164.226319 18.352997 61.027935 49.92404 120.844276 103.771435 161.904437l7.645121 5.76633 10.004865-0.041956 117.692492 1.022283-0.036839-48.133254-107.672278 0.823761c-40.342824-33.930787-65.11195-82.697467-80.160691-132.964314-13.643742-45.24753-19.35686-91.548042-21.502733-129.86472l789.490965 0.137123c1.373277 43.774993-13.127995 95.517447-30.971385 144.047744-17.950837 48.937572-43.632753 90.62195-74.485435 119.467929L676.703691 242.04594099999997 676.703691 288.53167199999996l140.639111 0 10.809183-3.131317c41.154305-33.932834 74.65735-89.176019 96.459912-148.697647C947.481767 74.40178000000003 964.568934 1.1934310000000323 957.943027-52.46772299999998M518.473947 9.532352999999944l-70.315462 46.487777 45.508473 161.080675-17.226337 24.896017 1.352811 25.469068c32.874735 1.579985 42.488697 1.579985 75.363432 0l1.351787-25.469068-17.226337-24.896017 51.508117-161.080675L518.473947 9.532352999999944zM721.98806 476.680842c-18.053168-54.859445-42.62889-95.933933-75.590606-126.350686-35.508725-32.844036-80.090083-52.498678-135.907343-62.820768l-4.532223-0.809435-4.500501 0.638543c-50.41932 7.437389-94.961792 26.273387-132.0065 59.428507-33.980929 30.398334-61.138452 72.664973-80.036871 128.966257-15.891945 7.565303-27.757181 20.132526-35.811624 37.031405-8.856715 18.571984-12.971429 42.829458-12.423961 71.566966l0.192382 11.097756 10.578939 6.248308c3.551896 2.153036 7.158027 4.045129 10.725272 5.719258-16.137539 86.279039-11.93789 159.795403 47.517223 208.778001C357.464903 846.417745 440.507224 825.755146 516.591063 835.754894c216.984916 28.596292 215.525682-68.066235 237.161445-231.906767 1.26583-0.684592 2.532683-1.36509 3.820002-2.156106l10.578939-6.244214 0.193405-11.102872c0.531096-28.16548-3.374864-51.988048-11.882632-70.450539C748.747517 497.13878 737.282395 484.461039 721.98806 476.680842M695.953104 562.9250890000001l-3.304256 9.750061-7.064906-0.387833-4.045129 18.694781c-3.128247 14.58416-7.945973 90.12053-14.201443 102.524025-18.791995-6.963599-39.853683 5.842055-58.871829 15.406898l-9.651824-26.414603-15.525602 1.796926 2.059915 16.08842-16.384156-22.970154-14.592346 2.52552 14.34573 34.102702c-76.771501-46.75179-209.019501-44.376697-226.491431-23.482831-2.746554-2.961448-3.25616-7.14677-4.678556-10.836813-3.620457-12.630668-7.66661-91.033319-11.265578-103.559611l-0.971118-4.588505-0.348947 0.047072c-0.794086-2.526543-1.512447-4.725628-2.231831-6.698562-6.592139 3.798513-19.956517 0.809435-31.887244-0.77055 1.104147-13.936407 3.791349-25.671683 8.191566-34.831296 4.393054-9.298783 10.422374-15.316847 18.052145-17.359366l13.025665-3.533476 3.551896-11.472286c16.734126-53.92619 40.821731-93.189426 71.00517-120.238478 28.126594-25.161053 61.983703-39.900755 100.375082-46.240137 43.653219 8.679683 78.337159 24.243147 105.686041 49.447179 28.954449 26.736944 50.578955 64.887846 66.74924 117.509321l3.357468 10.960633 12.291954 3.784186c7.467065 2.275833 13.373589 8.414647 17.704221 17.744129 4.179183 9.085936 6.818289 20.558222 7.890714 34.149774C711.54829 563.9616980000001 704.26849 563.810249 695.953104 562.9250890000001"  horiz-adv-x="1024" />

    
    <glyph glyph-name="grade-teacher" unicode="&#58985;" d="M63.673315-128c-2.478697 0-4.935063 0.437042-7.300511 1.29996-5.354559 1.952333-9.627679 5.871353-12.033004 11.037697-2.40692 5.166344-2.657341 10.961135-0.703414 16.315694 36.134102 99.146272 98.666164 183.854216 180.837989 244.963499 37.138979 27.618168 77.447308 49.696752 119.806863 65.620065l36.757764 13.816262-33.527802 20.44207c-21.550625 13.136773-41.597124 28.919723-59.584423 46.903832C228.074388 352.25465899999995 195.112826 431.831349 195.112826 516.472301c0 1.10377 0.017545 2.209134 0.035091 3.314499l0.154719 9.49529-7.43928 5.866568c-15.460751 12.195698-23.298792 25.957728-23.298792 40.90328l0 132.686834-81.135047 23.086651 0-266.585901c0-11.766632-9.573448-21.340079-21.340079-21.340079-11.766632 0-21.340079 9.573448-21.340079 21.340079l0 263.639857 0.601331 14.565932-14.286799 4.410294-17.874051 5.086592 502.81335 143.057803 502.80697-143.056208-155.368344-44.206614 0-132.686834c0-14.945552-7.839636-28.707582-23.298792-40.90328l-7.385049-5.825097 0.113248-10.642126c0.011165-0.797521 0.022331-1.50253 0.022331-2.207539 0-84.639357-32.961562-164.216047-92.812357-224.070032-18.138828-18.135638-38.359187-34.02386-60.096432-47.221245l-33.559703-20.373483 36.721078-13.891229c42.040546-15.899388 82.052197-37.866319 118.926399-65.294676 82.178206-61.114069 144.713458-145.822013 180.845965-244.963499 4.025888-11.056837-1.690745-23.327502-12.744393-27.356581-2.367044-0.859728-4.825005-1.29677-7.303701-1.29677-8.930645 0-16.985612 5.643262-20.046499 14.042758-33.272595 91.287496-90.751561 169.205342-166.216231 225.333306-76.94168 57.228544-167.310431 87.478533-261.333425 87.478533-94.021399 0-184.39015-30.249989-261.333425-87.478533-75.469455-56.131155-132.945231-134.050596-166.208256-225.333306C80.670092-122.35673799999995 72.608746-128 63.673315-128zM240.115366 480.76248c17.771968-135.967837 134.658307-238.500386 271.887824-238.500386 137.232706 0 254.117451 102.532548 271.886229 238.501981l3.727615 28.511392-27.744176-7.565289c-50.191215-13.690253-117.538712-22.990948-189.639436-26.185819l-0.612496-0.038281c-19.382961-1.692341-38.745187-2.545688-57.61933-2.545688-18.885308 0-38.207658 0.851753-57.42633 2.529738l-0.596546 0.041471c-72.268204 3.206036-139.661957 12.508326-189.848387 26.19858l-27.744176 7.566884L240.115366 480.76248zM207.238342 584.891666l16.020611-2.646176c2.113432-0.349314 4.145517-1.004877 6.042023-1.947547C293.853957 548.24077 379.84272 524.938789 459.320518 517.966856l0.38919-0.033496 0.531149-0.023926c16.91862-0.655563 34.333299-0.987332 51.760737-0.987332 17.424249 0 34.835737 0.331769 51.747977 0.985737l0.577406 0.030306 0.342934 0.027116c79.463443 6.971933 165.452206 30.272319 230.021137 62.331087 1.896506 0.944265 3.933376 1.599828 6.051593 1.950737l16.017421 2.650961 0 97.144493L517.76927 598.168804c-1.877366-0.526364-3.818533-0.794331-5.76608-0.794331s-3.888715 0.266372-5.764485 0.794331l-299.000363 83.872141L207.238342 584.891666zM165.146755 752.943792l346.856435-98.685305 346.859625 98.685305L512.00319 851.632287 165.146755 752.943792z"  horiz-adv-x="1024" />

    
    <glyph glyph-name="course" unicode="&#58889;" d="M489.813333 845.653333L358.4 845.653333c-30.72 0-54.613333-24.746667-54.613333-55.466667l0-828.586667c0-30.72 24.746667-55.466667 54.613333-55.466667l131.413333 0c29.866667 0 54.613333 24.746667 54.613333 55.466667L544.426667 790.1866669999999C545.28 820.906667 520.533333 845.653333 489.813333 845.653333zM477.866667-3.413332999999966c0-13.653333-11.093333-23.893333-23.893333-23.893333-17.066667 0-39.253333 0-59.733333 0-13.653333 0-23.893333 11.093333-23.893333 23.893333l0 0 0 757.76c0 13.653333 11.093333 23.893333 23.893333 23.893333 17.066667 0 39.253333 0 59.733333 0 13.653333 0 23.893333-11.093333 23.893333-23.893333L477.866667-3.413332999999966zM1022.293333 9.386666999999989L807.253333 810.666667c-3.413333 14.506667-12.8 26.453333-25.6 33.28-12.8 7.68-27.306667 9.386667-41.813333 5.973333l-127.146667-34.133333c-29.866667-7.68-46.933333-37.546667-38.4-67.413333l214.186667-800.426667c6.826667-24.746667 29.013333-40.96 52.906667-40.96 4.266667 0 9.386667 0.853333 13.653333 1.706667l127.146667 34.133333C1012.906667-50.346667000000025 1029.973333-20.480000000000018 1022.293333 9.386666999999989zM930.986667-2.5599999999999454c-17.066667-4.266667-37.546667-10.24-58.026667-15.36-12.8-3.413333-26.453333 4.266667-29.866667 17.066667-11.946667 46.933333-39.253333 147.626667-97.28 366.08L648.533333 731.3066670000001c-3.413333 12.8 4.266667 25.6 17.066667 29.866667 17.066667 4.266667 37.546667 10.24 58.026667 15.36 12.8 3.413333 26.453333-4.266667 29.866667-17.066667 11.946667-46.933333 39.253333-147.626667 97.28-366.08l98.133333-366.08C951.466667 13.653332999999975 943.786667 0.8533330000000205 930.986667-2.5599999999999454zM797.869568 378.77486899999997l0 0 0 0ZM189.44 845.653333L57.173333 845.653333c-30.72 0-54.613333-24.746667-54.613333-55.466667l0-828.586667c0-30.72 24.746667-55.466667 54.613333-55.466667l131.413333 0c29.866667 0 54.613333 24.746667 54.613333 55.466667L243.2 790.1866669999999C244.053333 820.906667 219.306667 845.653333 189.44 845.653333zM177.493333-3.413332999999966c0-13.653333-11.093333-23.893333-23.893333-23.893333-17.066667 0-39.253333 0-59.733333 0-13.653333 0-23.893333 11.093333-23.893333 23.893333l0 0 0 757.76c0 13.653333 11.093333 23.893333 23.893333 23.893333 17.066667 0 39.253333 0 59.733333 0 13.653333 0 23.893333-11.093333 23.893333-23.893333L177.493333-3.413332999999966z"  horiz-adv-x="1025" />

    
    <glyph glyph-name="arrowsleftline" unicode="&#59020;" d="M441.284937 762.508683l24.940019-25.712615c5.762237-5.962805 8.940626-13.833053 8.940626-22.179139 0-8.384971-3.178389-16.256242-8.940626-22.177092L212.794989 431.042409l726.44507 0c10.968819 0 19.911492-8.903787 19.911492-19.832697l0-51.627844c0-10.968819-8.942673-19.871583-19.911492-19.871583L212.595444 339.710284l253.628488-261.558088c5.762237-5.921873 8.940626-13.831007 8.940626-22.177092 0-8.385994-3.178389-16.256242-8.940626-22.177092l-24.940019-25.714661c-5.882987-6.080485-13.731746-9.419534-22.098297-9.419534-8.385994 0-16.256242 3.339048-22.157649 9.419534L72.655252 342.611357c-0.3776 0.398066-0.715291 0.794086-1.01205 1.153266-4.869914 3.696182-7.849782 9.458419-7.849782 15.818267l0 51.626821c0 6.477528 3.098571 12.360516 8.18645 16.016789 0.23843 0.277316 0.476861 0.556679 0.7552 0.836041l324.313364 334.445118c5.881964 6.081509 13.751189 9.420557 22.138206 9.420557C427.553191 771.92924 435.401949 768.54926 441.284937 762.508683z"  horiz-adv-x="1024" />

    
    <glyph glyph-name="user" unicode="&#58927;" d="M514.214 886c-277.268 0-501.996-224.73-501.996-501.996s224.728-502.004 501.996-502.004 501.996 224.74 501.996 502.004c0 277.266-224.73 501.996-501.996 501.996zM514.214 844.166c253.736 0 460.164-206.428 460.164-460.164 0-111.63-39.994-214.086-106.38-293.852-45.878 19.16-154.178 56.744-221.218 76.538-5.718 1.796-6.618 2.084-6.618 25.88 0 19.652 8.088 39.442 15.974 56.192 8.538 18.2 18.668 48.798 22.306 76.252 10.172 11.808 24.020 35.094 32.926 79.478 7.802 39.118 4.166 53.354-1.020 66.714-0.532 1.41-1.104 2.798-1.512 4.188-1.962 9.172 0.734 56.826 7.436 93.798 4.616 25.37-1.186 79.316-36.114 123.944-22.060 28.21-64.262 62.832-141.35 67.652l-42.282-0.040c-75.782-4.782-118.024-39.402-140.084-67.612-34.928-44.63-40.728-98.576-36.112-123.926 6.74-36.99 9.396-84.644 7.476-93.632-0.408-1.572-0.98-2.962-1.552-4.372-5.148-13.36-8.824-27.596-0.98-66.714 8.864-44.384 22.714-67.672 32.926-79.478 3.596-27.452 13.728-58.052 22.306-76.252 6.25-13.318 9.192-31.436 9.192-57.050 0-23.796-0.9-24.084-6.252-25.778-69.326-20.468-179.668-60.34-220.808-78.356-67.692 80.132-108.586 183.57-108.586 296.424-0.002 253.74 206.426 460.166 460.162 460.166zM192.948 54.968c47.104 19.23 141.024 52.73 202.71 70.95 35.87 11.316 35.87 41.526 35.87 65.792 0 20.12-1.388 49.78-13.154 74.862-8.090 17.178-17.324 46.634-19.364 69.694-0.45 5.392-2.982 10.376-7.068 13.93-5.924 5.19-17.976 24.186-25.656 62.504-6.086 30.334-3.512 36.972-1.020 43.386 1.062 2.738 2.084 5.434 2.902 8.478 5.024 18.362-0.574 78.682-6.66 112.14-2.654 14.544 0.694 55.866 27.902 90.674 24.388 31.19 61.318 48.574 108.422 51.576l39.668 0.042c48.37-3.044 85.3-20.428 109.73-51.618 27.208-34.808 30.518-76.13 27.86-90.692-6.046-33.44-11.684-93.758-6.66-112.1 0.86-3.064 1.838-5.76 2.902-8.498 2.494-6.412 5.066-13.052-0.98-43.386-7.678-38.32-19.772-57.316-25.696-62.504-4.044-3.554-6.576-8.538-7.068-13.93-2.002-23.060-11.234-52.516-19.322-69.694-9.274-19.712-19.936-45.96-19.936-74.004 0-24.268 0-54.478 36.236-65.896 59.032-17.444 153.402-49.86 203.242-69.46-83.216-82.398-197.562-133.382-323.594-133.382-124.886-0-238.252 50.084-321.266 131.136z"  horiz-adv-x="1024" />

    
    <glyph glyph-name="good" unicode="&#59493;" d="M659.019425-63.252346999999986c-124.021641 0-159.932526 16.819061-201.511503 36.294624-29.814026 13.964036-63.244416 29.622668-145.989979 40.332591l0-23.602557L181.825139-10.227690000000052c-21.945825 0-42.764989 12.354376-57.125045 33.893948-12.605086 18.905582-19.546172 43.512003-19.546172 69.286016L105.153922 411.087938c0 25.77299 6.940063 50.379411 19.545148 69.289086 14.360056 21.541619 35.180244 33.898041 57.125045 33.898041l129.692804 0 0-17.794271c86.280062 29.208229 168.367639 71.195505 228.875734 117.430526 36.080753 27.568892 63.113433 55.509245 80.352049 83.042321 17.397229 27.78788 24.188912 54.489008 20.192901 79.363536-2.181689 13.571087 2.307555 28.469402 12.005428 39.850613 8.78713 10.313903 20.666692 16.229636 32.588209 16.229636 27.064402 0 66.560952-13.923104 88.775906-53.160757 16.663518-29.430286 20.635993-67.610864 11.808954-113.479541-8.352225-43.393299-28.409027-94.220918-59.742662-151.49332l118.225635 0c24.64019 0 45.403073-11.192923 58.46046-31.519878 10.064216-15.668865 15.388479-36.453237 15.386432-60.106959 0-34.116005-10.791787-69.90614-29.810956-92.257194 0.401136-0.650823 0.794086-1.313925 1.174756-1.989307 7.04137-12.429077 10.611685-28.440749 10.611685-47.588855 0-26.90579-7.256264-57.605999-19.411095-82.123392-8.30413-16.752546-18.349927-29.581736-29.551036-38.027082 0.456395-3.581572 0.683569-7.446599 0.683569-11.620665 0-23.807219-7.677866-54.901401-19.558451-79.211063-12.131295-24.827455-27.938306-41.632189-45.775556-49.115628-4.938476-24.24724-19.340487-45.153386-41.762149-60.102866-23.074531-15.383362-53.625338-23.854291-86.022189-23.853267L659.019425-63.252346999999986 659.019425-63.252346999999986zM315.238684 60.58714599999996c91.665723-11.609409 129.040958-29.117155 162.331155-44.711318 37.968753-17.785062 67.956741-31.828916 181.450608-31.828916 39.680744 0 82.393545 17.48728 82.391499 55.879682L741.411947 63.578269999999975l23.652699 0c4.811586 0 11.073196 4.945639 17.175171 13.571087 8.1711 11.541871 15.210423 28.482705 19.315928 46.482661 4.241604 18.585287 3.52836 30.506804 2.520403 33.371038 0.971118-2.759857 6.245238-8.172123 14.013155-8.172123l0 47.300282c3.423983 0 12.034081 6.395664 20.540825 23.556509 8.93858 18.028609 14.487969 41.445948 14.487969 61.114916 0 10.416234-1.627057 19.263739-4.466732 24.272823-1.598404 2.821255-2.368954 2.821255-4.054339 2.821255l0 47.300282c2.515287 0 8.800433 4.474918 14.960737 16.48444 7.251148 14.131859 11.582803 33.181727 11.582803 50.953486 0 14.362102-2.800789 26.631544-7.883551 34.543747-4.405333 6.858198-9.988492 9.783831-18.664082 9.783831L643.758859 466.962503l21.490453 35.81674c94.557586 157.592224 83.126232 226.250954 67.89432 253.150604-11.979846 21.157879-32.399921 28.057009-44.597731 29.036313-0.3776-0.556679-0.707105-1.199315-0.826831-1.669012 10.656711-67.970044-30.347169-139.529847-118.608352-206.973912-67.963904-51.92972-160.975275-98.668207-257.43314-129.591497l3.559059-386.144594L315.238684 60.58714599999996 315.238684 60.58714599999996zM181.823092 466.971713c-13.582343 0-29.371958-24.410969-29.371958-55.885821l0-318.134641c0-31.471782 15.787568-55.879682 29.371958-55.879682l82.391499 0-0.027629 429.901167L181.823092 466.972736 181.823092 466.971713z"  horiz-adv-x="1024" />

    
    <glyph glyph-name="warning" unicode="&#59122;" d="M512-128C229.229714-128 0 101.229714 0 384S229.229714 896 512 896s512-229.229714 512-512-229.229714-512-512-512z m320.438857 832.438857A452.059429 452.059429 0 0 1 512 837.156571c-61.220571 0-120.539429-11.958857-176.384-35.584a452.315429 452.315429 0 0 1-144.054857-97.133714 452.315429 452.315429 0 0 1-97.133714-144.054857A450.779429 450.779429 0 0 1 58.843429 384a452.059429 452.059429 0 0 1 132.717714-320.438857 452.315429 452.315429 0 0 1 144.054857-97.133714c55.844571-23.588571 115.163429-35.584 176.384-35.584a452.059429 452.059429 0 0 1 320.438857 132.717714 452.315429 452.315429 0 0 1 97.133714 144.054857A450.925714 450.925714 0 0 1 965.156571 384c0 61.220571-11.995429 120.539429-35.584 176.384a452.315429 452.315429 0 0 1-97.133714 144.054857z m-349.878857-526.811428h58.88v-94.171429h-58.88v94.171429z m0 506.916571h58.88V249.051429h-58.88V684.544z"  horiz-adv-x="1024" />

    
    <glyph glyph-name="export" unicode="&#59096;" d="M472.983 166.74599999999998c9.23-9.23 24.195-9.23 33.426 0l289.583 289.583c9.23 9.23 9.23 24.195 0 33.426-9.215 9.214-24.179 9.214-33.41 0L513.324 240.49699999999996V814.343c0 13.042-10.585 23.628-23.628 23.628s-23.628-10.585-23.628-23.628v-573.846L216.81 489.755c-9.23 9.214-24.195 9.214-33.41 0-9.23-9.23-9.23-24.195 0-33.426l289.583-289.583zM891.37 213.135c-13.044 0-23.629-10.585-23.629-23.628v-147.674c0-18.493-14.712-33.472-32.874-33.472H144.525c-18.162 0-32.875 14.98-32.875 33.472V181.63199999999995v7.876c0 13.043-10.585 23.629-23.628 23.629s-23.628-10.586-23.628-23.629v-165.395c0-34.795 28.211-63.008 63.008-63.008h724.587c34.796 0 63.008 28.212 63.008 63.008V181.63199999999995v7.876c0 13.042-10.585 23.627-23.628 23.627z"  horiz-adv-x="1024" />

    
    <glyph glyph-name="score" unicode="&#58880;" d="M520.794 430.766v0zM808.326 462.303v0zM741.548 135.813h0.005-0.018zM176.747 119.90200000000004c3.701 0 7.407 3.707 5.556 7.407 0 5.562-3.701 11.118-3.701 18.537-3.711 33.355 29.65 111.191 44.469 142.697 64.867 144.542 64.867 142.691 63.011 157.511 0 7.417-14.826 33.356-27.799 33.356-14.825-1.851-68.573-42.625-83.393-53.743-11.124-9.269-20.393-14.825-20.393-29.65 0-3.711 0-11.119 5.562-11.119 1.856 0 11.119 5.563 12.975 7.413l46.325 24.093h1.856c-12.975-20.387-48.181-79.687-77.83-144.548-11.125-24.094-27.799-83.398-24.093-109.341 3.701-25.944 25.943-27.794 46.325-37.063 1.856-3.701 9.268-5.557 11.119-5.557l0.011 0.007M432.481 158.82000000000005c120.459 20.382 194.584 164.929 183.465 261.291-1.854 20.387-7.418 46.331-31.505 50.042 3.712 3.701 14.825 5.551 14.825 11.113-1.857 11.119-29.656 33.356-50.038 31.5-33.355-3.707-107.485-51.887-146.397-105.63-33.356-46.331-63.011-113.036-57.449-170.491 7.412-44.476 38.918-87.1 87.099-77.831v0.006m88.955 272.409c0-3.706 1.854-9.268 5.563-9.268 5.561 0 16.674 20.381 29.648 22.237 14.825 1.856 22.238-16.681 22.238-27.799 3.712-33.351-33.355-98.212-51.887-126.017l-44.48-51.887c-11.114-11.119-40.763-35.213-55.593-37.063-14.825-1.854-20.381 27.799-20.381 37.063-3.713 53.743 29.648 131.574 114.892 192.734M691.92 436.792c-33.354-46.325-63.01-113.043-57.447-170.491 5.561-42.618 37.065-87.099 83.397-77.83C840.18 210.70799999999997 914.299 353.4 903.185 451.617c-1.849 20.387-7.411 46.331-31.501 50.037 3.708 3.712 14.821 5.557 14.821 11.119-1.851 11.119-29.65 33.356-50.037 31.5-31.5-3.707-105.629-51.888-144.548-107.481m116.755 25.943c0-3.706 1.852-9.268 5.562-9.268 5.563 0 16.676 20.387 29.649 22.243 14.819 1.845 22.236-16.687 22.236-27.799 3.712-33.356-33.354-98.223-51.886-126.022l-44.479-51.888c-11.113-11.118-40.764-35.212-55.592-37.062-14.825-1.851-20.384 27.799-20.384 37.062-3.71 53.743 29.652 129.723 114.894 192.734M198.984 701.789h585.598c11.119 0 18.53 9.269 18.53 18.537v1.856c0 11.113-9.269 18.525-18.53 18.525H198.984c-11.119 0-18.537-9.268-18.537-18.525v-1.856c0.001-11.119 9.268-18.537 18.537-18.537M510.311 618.4010000000001v1.856c0 11.113-9.263 18.531-18.531 18.531H198.979c-11.113 0-18.531-9.274-18.531-18.531v-1.856c0-11.119 9.268-18.536 18.531-18.536H491.78c9.268 0 18.531 7.412 18.531 18.536M982.871 399.73V831.517c0 25.943-20.381 48.181-50.035 50.031H91.498c-27.799-1.85-50.042-24.087-50.042-50.031V-67.26999999999998c0-27.799 24.093-50.036 55.593-50.036h832.08c29.648 0 53.741 24.088 53.741 53.743V399.73h-0.004 0.005m-50.67-409.55c0-29.649-27.16-53.742-56.814-53.742H147.092c-25.944 0-48.187 18.531-48.187 42.618v804.28c0 22.236 18.537 40.762 42.63 42.618h748.681c24.089-1.856 42.626-20.382 42.626-42.618v-276.127M741.958 136.577c20.386 3.707 57.449 7.413 57.449 7.413-422.525-25.944-650.465-137.129-650.465-137.129s-14.82-9.27 0-16.687c7.418-3.701 51.887 16.687 51.887 16.687C506.599 116.19500000000005 858.705 143.99 858.705 143.99c-40.773 0-116.753-7.413-116.753-7.413h0.006M858.711 114.34000000000003c-422.524-25.942-650.464-137.135-650.464-137.135s-14.825-9.268 0-16.68c7.417-3.707 51.887 16.68 51.887 16.68C565.91 86.54700000000003 918.005 114.34000000000003 918.005 114.34000000000003c-42.618-1.855-116.749-7.412-116.749-7.412 20.388 1.852 57.449 7.412 57.449 7.412h0.006"  horiz-adv-x="1024" />

    
    <glyph glyph-name="top" unicode="&#58898;" d="M553.936 323.15200000000004h-79.344c-19.488 0-35.264-15.84-35.264-35.328v-147.152c0-19.52 15.776-35.328 35.264-35.328h79.344a35.296 35.296 0 0 1 35.264 35.328v147.152a35.328 35.328 0 0 1-35.264 35.328zM834.544 317.05600000000004h-106.976v-93.536h106.976c11.68 0 21.2 8.368 21.2 18.688v56.144c0 10.352-9.504 18.704-21.2 18.704zM512 865.216C246.24 865.216 30.784 649.76 30.784 384 30.784 118.22400000000005 246.24-97.21600000000001 512-97.21600000000001c265.776 0 481.216 215.44 481.216 481.216C993.216 649.76 777.776 865.216 512 865.216zM311.168 543.024L494.928 725.44s22.4 31.616 48-6.608l187.216-186.496s12.272-21.328-13.712-30.128c0 0-8.384-2.8-20.4 9.6L516.784 692.24 340.768 517.808s-13.6-16-29.6-1.6c0 0-10.8 10 0 26.816z m32.096-219.616h-88.096V77.44000000000005h-38.544V323.408H127.952v39.2h215.312v-39.2z m285.008-207.808c0-26.112-23.936-47.312-53.472-47.312h-120.288c-29.536 0-53.472 21.2-53.472 47.312V312.75199999999995c0 26.112 23.936 47.312 53.472 47.312h120.288c29.536 0 53.472-21.2 53.472-47.312v-197.152z m233.216 71.632h-135.616v-107.888H687.36v274.08h38.512v-0.08h135.616c19.024 0 34.448-14.864 34.448-33.232v-99.632c0-18.352-15.424-33.248-34.448-33.248z"  horiz-adv-x="1024" />

    
    <glyph glyph-name="detail" unicode="&#59161;" d="M765.952 727.04h-481.792c-44.032 0-80.384-36.352-80.384-80.896v-540.16c0-44.544 35.84-80.896 80.384-80.896h481.792c44.032 0 80.384 36.352 80.384 80.896V646.144c0 44.544-36.352 80.896-80.384 80.896z m26.624-621.056c0-14.848-11.776-27.136-26.624-27.136h-481.792c-14.848 0-26.624 12.288-26.624 27.136V646.144c0 14.848 11.776 27.136 26.624 27.136h481.792c14.848 0 26.624-12.288 26.624-27.136v-540.16z m-481.792 269.312c0-14.848 11.776-27.136 26.624-27.136h295.424c14.848 0 26.624 12.288 26.624 27.136s-11.776 27.136-26.624 27.136h-295.424c-14.848-0.512-26.624-12.288-26.624-27.136z m400.384-134.144h-374.272c-14.848 0-26.624-12.288-26.624-27.136s11.776-27.136 26.624-27.136h374.272c14.848 0 26.624 12.288 26.624 27.136 0.512 15.36-11.776 27.136-26.624 27.136z m-360.448 268.8c22.016 0 39.936 17.92 39.936 40.448s-17.92 40.448-39.936 40.448-39.936-17.92-39.936-40.448c-0.512-22.528 17.92-40.448 39.936-40.448z m173.568 0c22.016 0 39.936 17.92 39.936 40.448s-17.92 40.448-39.936 40.448-39.936-17.92-39.936-40.448c-0.512-22.528 17.408-40.448 39.936-40.448z m174.08 80.896c-22.016 0-39.936-17.92-39.936-40.448s17.92-40.448 39.936-40.448 39.936 17.92 39.936 40.448-17.92 40.448-39.936 40.448z"  horiz-adv-x="1025" />

    
    <glyph glyph-name="location" unicode="&#59132;" d="M774.558881 787.276786C704.414311 857.41931 611.16758 896 512 896c-99.169627 0-192.413288-38.578644-262.556834-108.723214-70.145593-70.145593-108.72526-163.387207-108.725261-262.558881 0-63.371306 14.996552-135.935995 44.38386-215.391628 24.913413-67.242474 60.105936-138.596592 101.830223-206.441793 37.491892-60.954257 79.095429-117.070322 117.190049-157.947311 19.349697-20.800745 37.370119-37.127595 53.454446-48.738028 20.439518-14.755052 38.337143-21.890566 54.544267-21.890566 16.084327 0 33.742499 7.135514 54.178947 22.011316 16.08535 11.610432 33.983999 28.058033 53.213969 48.738028 38.09462 40.876989 79.69918 96.992031 117.190049 157.825538 41.844014 67.847248 77.159334 139.200342 101.951996 206.321042 29.628808 79.57843 44.62536 152.141072 44.62536 215.512379 0 99.17065-38.578644 192.416358-108.72219 262.559904zM512.363274 344.520847c-101.348246 0-183.827749 80.786954-183.827749 180.198082S411.015028 704.915987 512.363274 704.915987c101.345176 0 183.704952-80.786954 183.704952-180.198082S613.710496 344.520847 512.363274 344.520847z"  horiz-adv-x="1024" />

    
    <glyph glyph-name="kebiao" unicode="&#59150;" d="M130.136-66c-37.574 0-68.136 30.562-68.136 68.128v677.769c0 37.574 30.562 68.136 68.136 68.136h132.252v65.502c0 11.284 9.182 20.466 20.471 20.466 11.284 0 20.466-9.182 20.466-20.466v-65.502h188.156v65.502c0 11.284 9.175 20.466 20.458 20.466 11.299-0.011 20.456-9.166 20.471-20.464v-65.503h188.15v65.502c0 11.284 9.182 20.466 20.471 20.466 11.295-0.016 20.447-9.17 20.458-20.464v-65.503h132.382c37.567 0 68.128-30.562 68.128-68.136v-677.763c0-37.567-30.562-68.136-68.128-68.136h-763.737zM130.136 707.219c-15.083-0.016-27.305-12.238-27.321-27.319v-677.771c0.02-15.08 12.241-27.299 27.319-27.314h763.738c10.146 0.024 18.994 5.559 23.714 13.767l3.839 6.758v684.557c-0.016 15.083-12.238 27.305-27.319 27.321h-132.377v-65.496c-0.011-11.297-9.162-20.452-20.456-20.471-11.303 0.011-20.462 9.171-20.474 20.47v65.496h-188.273v-65.496c0-11.289-9.182-20.471-20.466-20.471s-20.466 9.182-20.466 20.471v65.496h-188.156v-65.496c-0.011-11.3-9.166-20.456-20.464-20.471-11.285 0-20.467 9.182-20.467 20.471v65.496h-132.375zM663.407 204.00900000000001h98.082v-69.506h-98.082v69.506zM463.02 204.00900000000001h98.082v-69.506h-98.082v69.506zM262.51 204.00900000000001h98.082v-69.506h-98.082v69.506zM663.407 347.135h98.082v-69.513h-98.082v69.513zM463.02 347.135h98.082v-69.513h-98.082v69.513zM262.51 347.135h98.082v-69.513h-98.082v69.513zM663.407 490.371h98.082v-69.513h-98.082v69.513zM463.02 490.371h98.082v-69.513h-98.082v69.513zM262.51 490.371h98.082v-69.513h-98.082v69.513z"  horiz-adv-x="1024" />

    
    <glyph glyph-name="edit" unicode="&#58910;" d="M503.205 307.33399999999995l-45.368 45.694-8.816-8.815-16.912-62.226 62.169 16.419zM949.161 458.999c0.02 0.47 0.036 0.942 0.036 1.417 0 17.949-14.551 32.5-32.5 32.5-17.949 0-32.5-14.551-32.5-32.5 0-0.21 0.012-0.417 0.016-0.626h-0.326c0.154-0.765 0.299-1.532 0.448-2.299a32.403 32.403 0 0 1 1.137-6.083 379.872 379.872 0 0 0 5.861-66.574c0-209.073-170.094-379.167-379.167-379.167S132.999 175.76300000000003 132.999 384.835c0 209.073 170.093 379.167 379.167 379.167 27.184 0 53.704-2.886 79.282-8.35a32.317 32.317 0 0 1 9.785-2.231c0.806-0.195 1.615-0.382 2.42-0.582v0.499c17.879 0.083 32.347 14.598 32.347 32.496 0 17.898-14.469 32.413-32.347 32.496v0.234c-29.868 6.272-60.438 9.438-91.487 9.438-59.813 0-117.854-11.722-172.51-34.839-52.776-22.322-100.167-54.271-140.856-94.961s-72.639-88.08-94.961-140.856C80.721 502.69 69 444.649 69 384.836s11.722-117.854 34.839-172.51c22.322-52.776 54.271-100.167 94.961-140.855 40.689-40.689 88.08-72.64 140.856-94.962 54.656-23.117 112.697-34.839 172.51-34.839 59.813 0 117.854 11.722 172.511 34.839 52.775 22.322 100.166 54.272 140.855 94.962 40.689 40.688 72.639 88.079 94.961 140.855 23.118 54.656 34.84 112.697 34.84 172.51-0.001 25.073-2.076 49.832-6.172 74.163zM865.664 715.277l-0.13 0.13c-12.497 12.497-35.334 9.921-51.009-5.754l-26.406-26.406 45.385-45.385 26.406 26.406c15.675 15.675 18.251 38.512 5.754 51.009zM805.19 609.544L555.795 360.149l-45.385 45.384 249.395 249.395zM482.082 377.211l-22.653-22.653c-15.674-15.674-18.251-38.512-5.754-51.009l0.13-0.13c12.497-12.497 35.334-9.921 51.009 5.754l22.653 22.653-45.385 45.385z"  horiz-adv-x="1024" />

    
    <glyph glyph-name="base" unicode="&#59494;" d="M713.137 543.914c0 59.533-23.181 115.507-65.279 157.606-42.094 42.093-98.068 65.278-157.605 65.278-59.532 0-115.506-23.185-157.602-65.283-42.098-42.094-65.283-98.068-65.283-157.603 0-46.15 13.987-90.435 40.446-128.071 7.422-10.553 21.995-13.095 32.548-5.671 10.553 7.419 13.096 21.989 5.672 32.544-20.899 29.726-31.942 64.718-31.942 101.198 0 97.137 79.025 176.164 176.161 176.164 97.137 0 176.167-79.026 176.167-176.164 0-97.14-79.029-176.167-176.167-176.167v0 0c-47.996 0-94.572-9.403-138.434-27.955-42.349-17.91-80.376-43.552-113.031-76.204-32.651-32.656-58.288-70.685-76.203-113.032-18.554-43.861-27.955-90.437-27.955-138.435 0-12.903 10.461-23.364 23.359-23.364 12.904 0 23.365 10.461 23.365 23.364 0 170.331 138.57 308.902 308.9 308.902v0 0c59.537 0 115.507 23.185 157.605 65.284 42.099 42.094 65.28 98.068 65.28 157.604v0zM713.137 543.914zM532.195 252.35799999999995c0-12.903 10.455-23.364 23.359-23.364h310.457c12.9 0 23.36 10.461 23.36 23.364 0 12.9-10.461 23.359-23.36 23.359h-310.457c-12.903 0.001-23.359-10.46-23.359-23.359v0zM532.195 252.35799999999995zM866.012 156.75699999999995h-310.457c-12.903 0-23.359-10.461-23.359-23.364 0-12.898 10.456-23.359 23.359-23.359h310.457c12.9 0 23.36 10.462 23.36 23.359-0.001 12.903-10.462 23.364-23.36 23.364v0zM866.012 156.75699999999995zM866.012 37.793000000000006h-310.457c-12.903 0-23.359-10.461-23.359-23.364 0-12.9 10.456-23.36 23.359-23.36h310.457c12.9 0 23.36 10.461 23.36 23.36-0.001 12.903-10.462 23.364-23.36 23.364v0zM866.012 37.793000000000006z"  horiz-adv-x="1024" />

    
    <glyph glyph-name="tree" unicode="&#59055;" d="M976 128h-16V336c0 61.756-50.242 112-112 112H576v128h16c26.4 0 48 21.6 48 48V784c0 26.4-21.6 48-48 48h-160c-26.4 0-48-21.6-48-48v-160c0-26.4 21.6-48 48-48h16v-128H176c-61.756 0-112-50.244-112-112v-208h-16c-26.4 0-48-21.6-48-48v-160c0-26.4 21.6-48 48-48h160c26.4 0 48 21.6 48 48v160c0 26.4-21.6 48-48 48h-16v192h256v-192h-16c-26.4 0-48-21.6-48-48v-160c0-26.4 21.6-48 48-48h160c26.4 0 48 21.6 48 48v160c0 26.4-21.6 48-48 48h-16v192h256v-192h-16c-26.4 0-48-21.6-48-48v-160c0-26.4 21.6-48 48-48h160c26.4 0 48 21.6 48 48v160c0 26.4-21.6 48-48 48zM192-64H64v128h128v-128z m384 0h-128v128h128v-128z m-128 704V768h128v-128h-128z m512-704h-128v128h128v-128z"  horiz-adv-x="1024" />

    


  </font>
</defs>
</svg>
